<?xml version="1.0" encoding="utf-8"?>
<!-- Generator: Adobe Illustrator 23.0.0, SVG Export Plug-In . SVG Version: 6.00 Build 0)  -->
<svg version="1.1" id="Calque_1" xmlns="http://www.w3.org/2000/svg" xmlns:xlink="http://www.w3.org/1999/xlink" x="0px" y="0px"
	 viewBox="0 0 120 120" style="enable-background:new 0 0 120 120;" xml:space="preserve">
<style type="text/css">
	.st0{fill:#FFFFFF;}
</style>
<path d="M18,0h84c10,0,18,8.1,18,18v84c0,10-8.1,18-18,18H18c-10,0-18-8.1-18-18V18C0,8.1,8.1,0,18,0z"/>
<path class="st0" d="M15.5,94.5l26.9-26.8c2.7-2.7,7.2-2.7,9.9,0c2.7,2.7,2.7,7.2,0,9.9L37.4,92.5h45.2L50.1,60H20.2l15-15
	L15.6,25.5c-2-2-2.6-5-1.5-7.6c1.1-2.6,3.6-4.3,6.5-4.3h78.9c2.8,0,5.4,1.7,6.5,4.3c1.1,2.6,0.5,5.6-1.5,7.6l-26,26
	c-2.7,2.7-7.2,2.7-9.9,0c-2.7-2.7-2.7-7.2,0-9.9l14-14.1H37.5L69.9,60h29.9L84.9,74.9l19.5,19.6c2,2,2.6,5,1.5,7.6
	c-1.1,2.6-3.6,4.3-6.5,4.3H20.5c-2.8,0-5.4-1.7-6.5-4.3C12.9,99.5,13.5,96.5,15.5,94.5z"/>
</svg>
