<?xml version="1.0" encoding="utf-8"?>
<!-- Generator: Adobe Illustrator 23.0.0, SVG Export Plug-In . SVG Version: 6.00 Build 0)  -->
<svg version="1.1" id="Calque_1" xmlns="http://www.w3.org/2000/svg" xmlns:xlink="http://www.w3.org/1999/xlink" x="0px" y="0px"
	 viewBox="0 0 120 120" style="enable-background:new 0 0 120 120;" xml:space="preserve">
<style type="text/css">
	.st0{display:none;stroke:#FFFFFF;stroke-width:14;stroke-linecap:round;stroke-linejoin:round;}
	.st1{display:none;fill:#FFFFFF;}
	.st2{fill:#FFFFFF;}
</style>
<path d="M18,0H102c10,0,18,8.1,18,18V102c0,10-8.1,18-18,18H18c-10,0-18-8.1-18-18V18C0,8.1,8.1,0,18,0z"/>
<path class="st0" d="M46.6,46.6l-26-26h78.9L20.5,99.5h78.9L72.6,72.6"/>
<polyline class="st1" points="40.1,79.9 20.2,60 60,60 "/>
<polyline class="st1" points="79.9,40.1 99.8,60 60,60 "/>
<path class="st2" d="M77.6,67.7c-2.7-2.7-7.2-2.7-9.9,0c-2.7,2.7-2.7,7.2,0,9.9l14.9,14.9H37.4L69.9,60h29.9L84.8,45.1l19.6-19.6
	c2-2,2.6-5,1.5-7.6c-1.1-2.6-3.6-4.3-6.5-4.3H20.5c-2.8,0-5.4,1.7-6.5,4.3s-0.5,5.6,1.5,7.6l26,26c2.7,2.7,7.2,2.7,9.9,0
	c2.7-2.7,2.7-7.2,0-9.9L37.4,27.5h45.1L50.1,60H20.2l14.9,14.9L15.6,94.5c-2,2-2.6,5-1.5,7.6c1.1,2.6,3.6,4.3,6.5,4.3h78.9
	c2.8,0,5.4-1.7,6.5-4.3c1.1-2.6,0.5-5.6-1.5-7.6L77.6,67.7z"/>
</svg>
